<svg width="358" height="540" viewBox="0 0 358 540" fill="none" xmlns="http://www.w3.org/2000/svg">
<circle cx="341" cy="160" r="13.5" stroke="white" stroke-width="3"/>
<path d="M98.8488 123.216L106.98 137.3" stroke="white" stroke-width="1.9329" stroke-linecap="round"/>
<path d="M123.963 119.029L119.701 134.935" stroke="white" stroke-width="1.9329" stroke-linecap="round"/>
<path d="M82.6664 142.872L98.5729 147.134" stroke="white" stroke-width="1.9329" stroke-linecap="round"/>
<path d="M290.874 379.983L282.476 365.437" stroke="white" stroke-width="2.42969" stroke-linecap="round"/>
<path d="M264.935 384.307L269.337 367.879" stroke="white" stroke-width="2.42969" stroke-linecap="round"/>
<path d="M307.588 359.682L291.159 355.28" stroke="white" stroke-width="2.42969" stroke-linecap="round"/>
<circle opacity="0.1" cx="190.5" cy="107.5" r="6" stroke="white" stroke-width="3"/>
<circle opacity="0.1" cx="220.5" cy="389.5" r="6" stroke="white" stroke-width="3"/>
<circle opacity="0.5" cx="297" cy="145" r="2.5" stroke="white" stroke-width="3"/>
<circle opacity="0.5" cx="81" cy="385" r="2.5" stroke="white" stroke-width="3"/>
<circle opacity="0.5" cx="63" cy="153" r="2.5" stroke="white" stroke-width="3"/>
<circle cx="221" cy="145" r="2.5" stroke="white" stroke-width="3"/>
<circle opacity="0.5" cx="301" cy="68" r="2.5" stroke="white" stroke-width="3"/>
<circle opacity="0.5" cx="344" cy="338" r="2.5" stroke="white" stroke-width="3"/>
<circle opacity="0.2" cx="265" cy="112" r="7.5" stroke="white" stroke-width="3"/>
<circle opacity="0.2" cx="310.5" cy="472.5" r="27" stroke="white" stroke-width="3"/>
<circle opacity="0.2" cx="6" cy="36" r="34.5" stroke="white" stroke-width="3"/>
<circle opacity="0.2" cx="108.5" cy="453.5" r="17" stroke="white" stroke-width="3"/>
<circle opacity="0.2" cx="155.5" cy="52.5" r="10" stroke="white" stroke-width="3"/>
<circle cx="348" cy="280" r="7.5" stroke="white" stroke-width="3"/>
<circle cx="42" cy="223" r="7.5" stroke="white" stroke-width="3"/>
<circle cx="180" cy="374" r="7.5" stroke="white" stroke-width="3"/>
</svg>
