<svg width="48" height="48" viewBox="0 0 48 48" fill="none" xmlns="http://www.w3.org/2000/svg">
<circle cx="24" cy="24" r="4" fill="black"/>
<path fill-rule="evenodd" clip-rule="evenodd" d="M24.9452 16.4804C24.8669 16.4706 24.7884 16.462 24.7097 16.4546C24.6719 16.451 24.6348 16.4449 24.5985 16.4363C24.2602 16.3562 24 16.0651 24 15.7106C24 15.3181 24.3187 14.997 24.71 15.0279C24.7543 15.0315 24.7985 15.0353 24.8428 15.0394C24.9512 15.0496 25.0594 15.0618 25.1672 15.0759C26.7294 15.2802 28.218 15.8923 29.4789 16.8597C31.0506 18.0658 32.1806 19.7568 32.6933 21.6705C33.2061 23.5842 33.0731 25.6137 32.3149 27.4441C31.5567 29.2745 30.2158 30.8035 28.5 31.7941C26.7842 32.7847 24.7895 33.1815 22.8253 32.9229C20.861 32.6643 19.037 31.7648 17.636 30.3639C16.2351 28.9629 15.3356 27.1389 15.077 25.1746C14.8696 23.599 15.0838 22.0038 15.688 20.5487C15.7297 20.4483 15.7732 20.3485 15.8186 20.2495C15.8371 20.2092 15.8559 20.1689 15.8751 20.1288C16.0439 19.7744 16.4813 19.659 16.8212 19.8552C17.1283 20.0325 17.2503 20.4034 17.1504 20.7365C17.1397 20.7721 17.1265 20.8073 17.1107 20.8418C17.0778 20.9137 17.046 20.986 17.0153 21.0587C16.4954 22.2934 16.3099 23.6497 16.4862 24.9891C16.704 26.6432 17.4614 28.1791 18.6411 29.3588C19.8208 30.5385 21.3567 31.2959 23.0108 31.5137C24.6648 31.7315 26.3445 31.3974 27.7893 30.5632C29.2341 29.729 30.3633 28.4415 31.0017 26.9001C31.6402 25.3588 31.7522 23.6499 31.3204 22.0384C30.8886 20.4269 29.9371 19.003 28.6136 17.9874C27.5418 17.1649 26.2744 16.6475 24.9452 16.4804Z" fill="black"/>
<path fill-rule="evenodd" clip-rule="evenodd" d="M24 21.5C23.6717 21.5 23.3466 21.5647 23.0433 21.6903C22.74 21.8159 22.4644 22.0001 22.2322 22.2322C22.0001 22.4644 21.8159 22.74 21.6903 23.0433C21.5647 23.3466 21.5 23.6717 21.5 24C21.5 24.3283 21.5647 24.6534 21.6903 24.9567C21.8159 25.26 22.0001 25.5356 22.2322 25.7678C22.4644 25.9999 22.74 26.1841 23.0433 26.3097C23.3466 26.4353 23.6717 26.5 24 26.5C24.3283 26.5 24.6534 26.4353 24.9567 26.3097C25.26 26.1841 25.5356 25.9999 25.7678 25.7678C25.9999 25.5356 26.1841 25.26 26.3097 24.9567C26.4353 24.6534 26.5 24.3283 26.5 24C26.5 23.6717 26.4353 23.3466 26.3097 23.0433C26.1841 22.74 25.9999 22.4644 25.7678 22.2322C25.5356 22.0001 25.26 21.8159 24.9567 21.6903C24.6534 21.5647 24.3283 21.5 24 21.5ZM22.4693 20.3045C22.9546 20.1035 23.4747 20 24 20C24.5253 20 25.0454 20.1035 25.5307 20.3045C26.016 20.5055 26.457 20.8001 26.8284 21.1716C27.1999 21.543 27.4945 21.984 27.6955 22.4693C27.8965 22.9546 28 23.4747 28 24C28 24.5253 27.8965 25.0454 27.6955 25.5307C27.4945 26.016 27.1999 26.457 26.8284 26.8284C26.457 27.1999 26.016 27.4945 25.5307 27.6955C25.0454 27.8965 24.5253 28 24 28C23.4747 28 22.9546 27.8965 22.4693 27.6955C21.984 27.4945 21.543 27.1999 21.1716 26.8284C20.8001 26.457 20.5055 26.016 20.3045 25.5307C20.1035 25.0454 20 24.5253 20 24C20 23.4747 20.1035 22.9546 20.3045 22.4693C20.5055 21.984 20.8001 21.543 21.1716 21.1716C21.543 20.8001 21.984 20.5055 22.4693 20.3045Z" fill="black"/>
</svg>
