<svg width="23" height="23" viewBox="0 0 23 23" fill="none" xmlns="http://www.w3.org/2000/svg">
<path fill-rule="evenodd" clip-rule="evenodd" d="M8.70572 20.5111C13.6656 21.8401 18.7638 18.8967 20.0928 13.9368C21.4218 8.97685 18.4784 3.87867 13.5185 2.54966C8.55856 1.22065 3.46037 4.16409 2.13136 9.12401C0.802356 14.0839 3.74579 19.1821 8.70572 20.5111ZM16.2188 12.8987C15.4631 15.7191 12.5641 17.3928 9.74376 16.6371C6.92342 15.8814 5.2497 12.9824 6.00541 10.1621C6.76112 7.34171 9.66008 5.66799 12.4804 6.4237C15.3008 7.17941 16.9745 10.0784 16.2188 12.8987ZM21.6777 14.3614C20.1141 20.1966 14.1163 23.6595 8.28106 22.096C2.44586 20.5324 -1.01701 14.5346 0.546527 8.69936C2.11007 2.86416 8.10793 -0.598713 13.9431 0.964825C19.7783 2.52836 23.2412 8.52623 21.6777 14.3614ZM14.634 12.4741C14.1128 14.4191 12.1135 15.5734 10.1684 15.0523C8.22335 14.5311 7.06906 12.5318 7.59024 10.5867C8.11142 8.64165 10.1107 7.48736 12.0558 8.00854C14.0008 8.52972 15.1551 10.529 14.634 12.4741Z" fill="url(#paint0_linear_729_3441)"/>
<defs>
<linearGradient id="paint0_linear_729_3441" x1="13.9431" y1="0.964825" x2="8.56417" y2="21.0394" gradientUnits="userSpaceOnUse">
<stop stop-color="#FFB800"/>
<stop offset="1" stop-color="#FF8A00" stop-opacity="0.24"/>
</linearGradient>
</defs>
</svg>
