<svg width="24" height="24" viewBox="0 0 24 24" fill="none" xmlns="http://www.w3.org/2000/svg">
<path fill-rule="evenodd" clip-rule="evenodd" d="M16.2883 22.2372C16.4193 22.6301 16.844 22.8425 17.237 22.7115C17.6299 22.5805 17.8423 22.1558 17.7113 21.7628L17.0049 19.6435C19.1456 19.1824 20.75 17.2785 20.75 15V8.99996C20.75 6.37661 18.6234 4.24996 16 4.24996H12.7498V2.5C12.7498 2.08579 12.414 1.75 11.9998 1.75C11.5856 1.75 11.2498 2.08579 11.2498 2.5L11.2498 4.24996H8C5.37665 4.24996 3.25 6.37661 3.25 8.99996V15C3.25 17.2784 4.85422 19.1822 6.99477 19.6434L6.28828 21.7628C6.1573 22.1558 6.36967 22.5805 6.76263 22.7115C7.15558 22.8425 7.58032 22.6301 7.71131 22.2372L8.54037 19.75H15.4592L16.2883 22.2372ZM11.9921 5.74996H8C6.20507 5.74996 4.75 7.20504 4.75 8.99996V15C4.75 16.7949 6.20507 18.25 8 18.25H16C17.7949 18.25 19.25 16.7949 19.25 15V8.99996C19.25 7.20504 17.7949 5.74996 16 5.74996H12.0075C12.005 5.74999 12.0024 5.75 11.9998 5.75C11.9972 5.75 11.9946 5.74999 11.9921 5.74996Z" fill="#141416"/>
</svg>
