<svg width="55" height="48" viewBox="0 0 55 48" fill="none" xmlns="http://www.w3.org/2000/svg">
<path fill-rule="evenodd" clip-rule="evenodd" d="M9.98528 0.232988L0.0408836 21.1188C0.00304236 21.1965 -0.00894931 21.2842 0.00666231 21.3692C0.0222739 21.4542 0.0646698 21.532 0.12765 21.5911L26.9851 47.324C27.0614 47.3972 27.163 47.438 27.2687 47.438C27.3744 47.438 27.476 47.3972 27.5523 47.324L54.4097 21.5927C54.4727 21.5336 54.515 21.4558 54.5307 21.3708C54.5463 21.2858 54.5343 21.1981 54.4964 21.1204L44.552 0.234595C44.52 0.164451 44.4683 0.105031 44.4034 0.0634353C44.3384 0.0218396 44.2628 -0.000172065 44.1857 3.10915e-05H10.3548C10.2773 -0.000933129 10.2012 0.0205483 10.1356 0.061884C10.07 0.10322 10.0178 0.162644 9.98528 0.232988Z" fill="#50AF95" fill-opacity="0.5"/>
<path fill-rule="evenodd" clip-rule="evenodd" d="M30.7215 23.2649C30.5287 23.2793 29.5325 23.3388 27.3103 23.3388C25.5428 23.3388 24.2879 23.2858 23.8477 23.2649C17.0172 22.9644 11.9189 21.7756 11.9189 20.3521C11.9189 18.9287 17.0172 17.7414 23.8477 17.4361V22.0808C24.2943 22.1129 25.5733 22.1884 27.3408 22.1884C29.4618 22.1884 30.5238 22.1001 30.7151 22.0824V17.4393C37.531 17.743 42.6181 18.9319 42.6181 20.3521C42.6181 21.7723 37.5326 22.9612 30.7151 23.2633L30.7215 23.2649ZM30.7215 16.959V12.8027H40.2336V6.46465H14.3355V12.8027H23.846V16.9574C16.1158 17.3124 10.3025 18.8435 10.3025 20.6782C10.3025 22.513 16.1158 24.0425 23.846 24.3991V37.7178H30.7199V24.3943C38.4324 24.0393 44.2361 22.5098 44.2361 20.6766C44.2361 18.8435 38.4373 17.314 30.7199 16.9574L30.7215 16.959Z" fill="white"/>
</svg>
