<svg width="30" height="30" viewBox="0 0 30 30" fill="none" xmlns="http://www.w3.org/2000/svg">
<path d="M7.79804 10.999L9.39844 12.5994L12.5993 9.39863M16.6003 11.7992L22.2017 11.7992M7.79804 19.0011L9.39844 20.6015L12.5993 17.4007M16.6003 19.8013H22.2017M1.69672 19.6917C0.972871 16.6058 0.972871 13.3943 1.69672 10.3084C2.69901 6.03552 6.03534 2.69919 10.3083 1.6969C13.3941 0.973055 16.6056 0.973054 19.6915 1.6969C23.9644 2.69919 27.3007 6.03553 28.303 10.3085C29.0269 13.3943 29.0269 16.6058 28.303 19.6916C27.3007 23.9646 23.9644 27.3009 19.6915 28.3032C16.6056 29.027 13.3941 29.027 10.3083 28.3032C6.03534 27.3009 2.69901 23.9646 1.69672 19.6917Z" stroke="white" stroke-width="2.30628" stroke-linecap="round" stroke-linejoin="round"/>
</svg>
