<svg width="16" height="16" viewBox="0 0 16 16" fill="none" xmlns="http://www.w3.org/2000/svg">
<path fill-rule="evenodd" clip-rule="evenodd" d="M2.16667 4.6665C2.16667 3.28579 3.28596 2.1665 4.66667 2.1665H11.3333C12.7141 2.1665 13.8333 3.28579 13.8333 4.6665V5.33317C13.8333 5.9775 13.311 6.49984 12.6667 6.49984H3.33334C2.68901 6.49984 2.16667 5.9775 2.16667 5.33317V4.6665ZM4.66667 3.1665C3.83824 3.1665 3.16667 3.83808 3.16667 4.6665V5.33317C3.16667 5.42522 3.24129 5.49984 3.33334 5.49984H12.6667C12.7587 5.49984 12.8333 5.42522 12.8333 5.33317V4.6665C12.8333 3.83808 12.1618 3.1665 11.3333 3.1665H4.66667Z" fill="#141416"/>
<path d="M2.66667 8.66667C2.66667 8.29848 2.96515 8 3.33334 8H12.6667C13.0349 8 13.3333 8.29848 13.3333 8.66667V12C13.3333 13.1046 12.4379 14 11.3333 14H4.66667C3.5621 14 2.66667 13.1046 2.66667 12V8.66667Z" fill="#141416"/>
<path fill-rule="evenodd" clip-rule="evenodd" d="M2.16667 8.66667C2.16667 8.02233 2.68901 7.5 3.33334 7.5H12.6667C13.311 7.5 13.8333 8.02233 13.8333 8.66667V12C13.8333 13.3807 12.7141 14.5 11.3333 14.5H4.66667C3.28596 14.5 2.16667 13.3807 2.16667 12V8.66667ZM3.33334 8.5C3.24129 8.5 3.16667 8.57462 3.16667 8.66667V12C3.16667 12.8284 3.83824 13.5 4.66667 13.5H11.3333C12.1618 13.5 12.8333 12.8284 12.8333 12V8.66667C12.8333 8.57462 12.7587 8.5 12.6667 8.5H3.33334Z" fill="#141416"/>
</svg>
