<svg width="16" height="16" viewBox="0 0 16 16" fill="none" xmlns="http://www.w3.org/2000/svg">
<path fill-rule="evenodd" clip-rule="evenodd" d="M8 2.5C4.96243 2.5 2.5 4.96243 2.5 8C2.5 11.0376 4.96243 13.5 8 13.5C11.0376 13.5 13.5 11.0376 13.5 8C13.5 4.96243 11.0376 2.5 8 2.5ZM1.5 8C1.5 4.41015 4.41015 1.5 8 1.5C11.5899 1.5 14.5 4.41015 14.5 8C14.5 11.5899 11.5899 14.5 8 14.5C4.41015 14.5 1.5 11.5899 1.5 8ZM8 4.5C8.27614 4.5 8.5 4.72386 8.5 5L8.5 7.79289L10.3536 9.64644C10.5488 9.84171 10.5488 10.1583 10.3536 10.3536C10.1583 10.5488 9.84171 10.5488 9.64645 10.3536L7.64796 8.35506C7.64233 8.34947 7.63683 8.34376 7.63146 8.33791C7.59235 8.29532 7.56197 8.24759 7.54031 8.19701C7.51437 8.13655 7.5 8.06995 7.5 8L7.5 5C7.5 4.72386 7.72386 4.5 8 4.5Z" fill="#777E90"/>
</svg>
