<svg width="24" height="24" viewBox="0 0 24 24" fill="none" xmlns="http://www.w3.org/2000/svg">
<circle cx="12" cy="12" r="4" fill="black"/>
<path fill-rule="evenodd" clip-rule="evenodd" d="M12.9452 4.48043C12.8669 4.47059 12.7884 4.46196 12.7097 4.45456C12.6719 4.45101 12.6348 4.44485 12.5985 4.43628C12.2602 4.35621 12 4.06513 12 3.71059C12 3.31809 12.3187 2.99699 12.71 3.02794C12.7543 3.03145 12.7985 3.03528 12.8428 3.03944C12.9512 3.04964 13.0594 3.0618 13.1672 3.0759C14.7294 3.28022 16.218 3.89228 17.4789 4.85973C19.0506 6.06581 20.1806 7.75684 20.6933 9.67054C21.2061 11.5842 21.0731 13.6137 20.3149 15.4441C19.5567 17.2745 18.2158 18.8035 16.5 19.7941C14.7842 20.7847 12.7895 21.1815 10.8253 20.9229C8.861 20.6643 7.03696 19.7648 5.63604 18.3639C4.23511 16.9629 3.33559 15.1389 3.07699 13.1746C2.86956 11.599 3.08381 10.0038 3.68799 8.54871C3.72968 8.44829 3.77323 8.34855 3.81863 8.24952C3.83713 8.20916 3.85595 8.16891 3.87506 8.12878C4.04389 7.77445 4.48132 7.659 4.82124 7.85525C5.12828 8.03252 5.25026 8.4034 5.15043 8.73645C5.13974 8.77211 5.12651 8.80733 5.1107 8.84183C5.07776 8.91369 5.04597 8.98599 5.01535 9.05872C4.49541 10.2934 4.30986 11.6497 4.4862 12.9891C4.70395 14.6432 5.46141 16.1791 6.64109 17.3588C7.82077 18.5385 9.35674 19.2959 11.0108 19.5137C12.6648 19.7315 14.3445 19.3974 15.7893 18.5632C17.2341 17.729 18.3633 16.4415 19.0017 14.9001C19.6402 13.3588 19.7522 11.6499 19.3204 10.0384C18.8886 8.42694 17.9371 7.00298 16.6136 5.98737C15.5418 5.16494 14.2744 4.64751 12.9452 4.48043Z" fill="black"/>
<path fill-rule="evenodd" clip-rule="evenodd" d="M12 9.5C11.6717 9.5 11.3466 9.56466 11.0433 9.6903C10.74 9.81594 10.4644 10.0001 10.2322 10.2322C10.0001 10.4644 9.81594 10.74 9.6903 11.0433C9.56466 11.3466 9.5 11.6717 9.5 12C9.5 12.3283 9.56466 12.6534 9.6903 12.9567C9.81594 13.26 10.0001 13.5356 10.2322 13.7678C10.4644 13.9999 10.74 14.1841 11.0433 14.3097C11.3466 14.4353 11.6717 14.5 12 14.5C12.3283 14.5 12.6534 14.4353 12.9567 14.3097C13.26 14.1841 13.5356 13.9999 13.7678 13.7678C13.9999 13.5356 14.1841 13.26 14.3097 12.9567C14.4353 12.6534 14.5 12.3283 14.5 12C14.5 11.6717 14.4353 11.3466 14.3097 11.0433C14.1841 10.74 13.9999 10.4644 13.7678 10.2322C13.5356 10.0001 13.26 9.81594 12.9567 9.6903C12.6534 9.56466 12.3283 9.5 12 9.5ZM10.4693 8.30448C10.9546 8.10346 11.4747 8 12 8C12.5253 8 13.0454 8.10346 13.5307 8.30448C14.016 8.5055 14.457 8.80014 14.8284 9.17157C15.1999 9.54301 15.4945 9.98396 15.6955 10.4693C15.8965 10.9546 16 11.4747 16 12C16 12.5253 15.8965 13.0454 15.6955 13.5307C15.4945 14.016 15.1999 14.457 14.8284 14.8284C14.457 15.1999 14.016 15.4945 13.5307 15.6955C13.0454 15.8965 12.5253 16 12 16C11.4747 16 10.9546 15.8965 10.4693 15.6955C9.98396 15.4945 9.54301 15.1999 9.17157 14.8284C8.80014 14.457 8.5055 14.016 8.30448 13.5307C8.10346 13.0454 8 12.5253 8 12C8 11.4747 8.10346 10.9546 8.30448 10.4693C8.5055 9.98396 8.80014 9.54301 9.17157 9.17157C9.54301 8.80014 9.98397 8.5055 10.4693 8.30448Z" fill="black"/>
</svg>
