<svg width="16" height="16" viewBox="0 0 16 16" fill="none" xmlns="http://www.w3.org/2000/svg">
<path fill-rule="evenodd" clip-rule="evenodd" d="M4 4.5C3.90795 4.5 3.83333 4.57462 3.83333 4.66667V12.9603C3.83333 13.0818 3.95914 13.1624 4.06955 13.1117L7.51316 11.5305C7.82221 11.3886 8.17779 11.3886 8.48684 11.5305L11.9304 13.1117C12.0409 13.1624 12.1667 13.0818 12.1667 12.9603V4.66667C12.1667 4.57462 12.092 4.5 12 4.5H4ZM2.83333 4.66667C2.83333 4.02233 3.35567 3.5 4 3.5H12C12.6443 3.5 13.1667 4.02233 13.1667 4.66667V12.9603C13.1667 13.8107 12.286 14.3754 11.5132 14.0205L8.06955 12.4393C8.0254 12.419 7.9746 12.419 7.93045 12.4393L4.48684 14.0205C3.71399 14.3754 2.83333 13.8107 2.83333 12.9603V4.66667Z" fill="#141416"/>
<path fill-rule="evenodd" clip-rule="evenodd" d="M5 2.5C4.90795 2.5 4.83333 2.57462 4.83333 2.66667V4H3.83333V2.66667C3.83333 2.02233 4.35567 1.5 5 1.5H11C11.6443 1.5 12.1667 2.02233 12.1667 2.66667V4H11.1667V2.66667C11.1667 2.57462 11.092 2.5 11 2.5H5Z" fill="#141416"/>
</svg>
