<svg width="50" height="50" viewBox="0 0 50 50" fill="none" xmlns="http://www.w3.org/2000/svg">
<g clip-path="url(#clip0_124_2301)">
<rect x="1" y="1" width="48" height="48" rx="24" fill="white"/>
<path d="M25 1C11.752 1 1 11.752 1 25C1 38.248 11.752 49 25 49C38.248 49 49 38.248 49 25C49 11.752 38.248 1 25 1ZM25 8.2C28.984 8.2 32.2 11.416 32.2 15.4C32.2 19.384 28.984 22.6 25 22.6C21.016 22.6 17.8 19.384 17.8 15.4C17.8 11.416 21.016 8.2 25 8.2ZM25 42.28C19 42.28 13.696 39.208 10.6 34.552C10.672 29.776 20.2 27.16 25 27.16C29.776 27.16 39.328 29.776 39.4 34.552C36.304 39.208 31 42.28 25 42.28Z" fill="#E6E8EC"/>
</g>
<rect x="0.5" y="0.5" width="49" height="49" rx="24.5" stroke="white"/>
<defs>
<clipPath id="clip0_124_2301">
<rect x="1" y="1" width="48" height="48" rx="24" fill="white"/>
</clipPath>
</defs>
</svg>
