<svg width="45" height="53" viewBox="0 0 45 53" fill="none" xmlns="http://www.w3.org/2000/svg">
<path fill-rule="evenodd" clip-rule="evenodd" d="M40.2975 13.4592C40.249 13.7734 40.1927 14.0945 40.13 14.4245C37.9673 25.5738 30.5679 29.4254 21.1179 29.4254H16.3062C15.1505 29.4254 14.1764 30.2677 13.9966 31.4125L10.8354 51.546C10.7183 52.2978 11.2952 52.9749 12.0504 52.9749H20.5846C21.5949 52.9749 22.4534 52.2379 22.6126 51.2372L22.6963 50.802L24.3032 40.5639L24.4065 40.0023C24.5637 38.9982 25.4242 38.2607 26.4345 38.2607H27.7108C35.979 38.2607 42.4519 34.8904 44.3437 25.1366C45.1337 21.0622 44.7247 17.66 42.6336 15.2673C42.0008 14.5459 41.2158 13.947 40.2975 13.4592Z" fill="#298FC2" fill-opacity="0.5"/>
<path fill-rule="evenodd" clip-rule="evenodd" d="M38.0342 12.5536C37.7036 12.4567 37.3628 12.3692 37.0131 12.29C36.6615 12.2128 36.3015 12.1445 35.9308 12.0845C34.6335 11.8741 33.2117 11.7742 31.6892 11.7742H18.835C18.5181 11.7742 18.2174 11.846 17.9486 11.9758C17.3555 12.262 16.9152 12.8255 16.8085 13.5154L14.0738 30.9056L13.9954 31.4126C14.1752 30.2679 15.1492 29.4256 16.305 29.4256H21.1167C30.5667 29.4256 37.9661 25.5719 40.1288 14.4246C40.1934 14.0947 40.2478 13.7736 40.2963 13.4594C39.7493 13.1678 39.1567 12.9185 38.5185 12.706C38.3608 12.6534 38.1983 12.6028 38.0342 12.5536Z" fill="#22284F" fill-opacity="0.5"/>
<path fill-rule="evenodd" clip-rule="evenodd" d="M16.8085 13.5154C16.9152 12.8255 17.3561 12.2621 17.9492 11.9778C18.22 11.8475 18.5188 11.7758 18.8356 11.7758H31.6898C33.2124 11.7758 34.6341 11.8761 35.9314 12.0865C36.3021 12.146 36.6621 12.2149 37.0137 12.2921C37.3634 12.3707 37.7043 12.4588 38.0348 12.5551C38.1989 12.6043 38.3615 12.6554 38.5206 12.7061C39.1588 12.9185 39.7519 13.1698 40.2989 13.4594C40.9424 9.33927 40.2935 6.534 38.075 3.99376C35.6287 1.19685 31.2143 0 25.5651 0H9.1648C8.01098 0 7.02661 0.842319 6.84834 1.98901L0.0174818 45.4636C-0.117196 46.3236 0.54346 47.0996 1.40736 47.0996H11.5322L16.8085 13.5154Z" fill="#28356A" fill-opacity="0.5"/>
</svg>
