<svg width="24" height="24" viewBox="0 0 24 24" fill="none" xmlns="http://www.w3.org/2000/svg">
<path fill-rule="evenodd" clip-rule="evenodd" d="M17.4912 8.34188C16.2294 7.0514 14.153 7.0514 12.8912 8.34188L12.5361 8.70506C12.395 8.84937 12.2017 8.93072 11.9999 8.93072C11.798 8.93072 11.6047 8.84937 11.4636 8.70506L11.1085 8.34188C9.84671 7.0514 7.77034 7.0514 6.50854 8.34188C5.28622 9.59199 5.28621 11.5895 6.50854 12.8396L11.6576 18.1057C11.8454 18.2977 12.1544 18.2977 12.3421 18.1057L17.4912 12.8396C18.7135 11.5895 18.7135 9.59199 17.4912 8.34188ZM11.9999 7.11742C13.8625 5.4029 16.7727 5.46149 18.5637 7.2932C20.356 9.12625 20.356 12.0552 18.5637 13.8883L13.4146 19.1544C12.6385 19.9482 11.3613 19.9482 10.5851 19.1544L5.43603 13.8883C3.64372 12.0552 3.64372 9.12625 5.43603 7.2932C7.22704 5.4615 10.1373 5.4029 11.9999 7.11742Z" fill="#141416"/>
</svg>
