<svg width="16" height="16" viewBox="0 0 16 16" fill="none" xmlns="http://www.w3.org/2000/svg">
<path fill-rule="evenodd" clip-rule="evenodd" d="M13.3524 5.87268C12.3519 4.84952 10.7057 4.84952 9.70524 5.87268L9.42369 6.16063C9.31181 6.27505 9.15854 6.33955 8.99852 6.33955C8.83849 6.33955 8.68522 6.27505 8.57334 6.16063L8.29179 5.87268C7.29136 4.84952 5.64509 4.84952 4.64466 5.87268C3.67552 6.86384 3.67552 8.4476 4.64466 9.43877L8.72715 13.614C8.87603 13.7663 9.12101 13.7663 9.26988 13.614L13.3524 9.43877C14.3215 8.4476 14.3215 6.86384 13.3524 5.87268ZM8.99852 4.90186C10.4753 3.54248 12.7827 3.58894 14.2027 5.04123C15.6238 6.49458 15.6238 8.81687 14.2027 10.2702L10.1202 14.4455C9.50484 15.0749 8.49219 15.0749 7.8768 14.4455L3.79431 10.2702C2.37325 8.81687 2.37325 6.49458 3.79431 5.04123C5.21433 3.58894 7.52172 3.54248 8.99852 4.90186Z" fill="#141416"/>
</svg>
