<svg width="20" height="20" viewBox="0 0 44 46" fill="none" xmlns="http://www.w3.org/2000/svg">
<path d="M43.1634 33.6464L43.1727 33.6413H43.1546L32.5283 27.8833L21.8844 22.1152L11.24 27.8833L0.613786 33.6413H0.595703L0.604955 33.6464L0.595703 33.6515H0.613786L11.24 39.4094L21.8844 45.1775L32.5283 39.4094L43.1546 33.6515H43.1727L43.1634 33.6464Z" fill="#DCD8FF"/>
<path d="M43.1634 11.5312L43.1727 11.5265H43.1546L32.5283 5.76811L21.8844 0L11.24 5.76811L0.613786 11.5265H0.595703L0.604955 11.5312L0.595703 11.5362H0.613786L11.24 17.2946L21.8844 23.0627L32.5283 17.2946L43.1546 11.5362H43.1727L43.1634 11.5312Z" fill="#4A3AFF"/>
<path d="M0.61377 11.0625V34.1151L21.8844 22.589L0.61377 11.0625Z" fill="#B8B1FF"/>
<path d="M43.1545 11.0625V34.1151L21.8843 22.589L43.1545 11.0625Z" fill="#B8B1FF"/>
</svg>
